<svg
  xmlns="http://www.w3.org/2000/svg"
  xmlns:xlink="http://www.w3.org/1999/xlink"
  fill="none"
  version="1.1"
  width="48"
  height="48"
  viewBox="0 0 48 48"
>
  <defs>
    <clipPath id="master_svg0_3_378"><rect x="0" y="0" width="48" height="48" rx="0" /></clipPath>
  </defs>
  <g style="mix-blend-mode: passthrough" clip-path="url(#master_svg0_3_378)">
    <g style="mix-blend-mode: passthrough">
      <rect x="1" y="1" width="47" height="47" rx="5" fill="#1E293B" fill-opacity="1" />
    </g>
    <g style="mix-blend-mode: passthrough">
      <g style="mix-blend-mode: passthrough">
        <path
          d="M38.97259331054687,37.3517C38.97259331054687,37.3517,38.97259331054687,37.3517,38.97259331054687,37.3517C38.97259331054687,37.3517,38.97259331054687,37.3517,38.97259331054687,37.3517C38.97259331054687,37.3517,38.97259331054687,37.3337,38.97259331054687,37.3337C38.97259331054687,37.3337,38.97259331054687,37.3337,38.97259331054687,37.3337C38.97309331054687,37.3257,38.97309331054687,37.3177,38.97259331054687,37.3097C38.97259331054687,37.3097,24.333313310546874,8.245577,24.333313310546874,8.245577C24.333313310546874,8.245577,24.333313310546874,8.245577,24.333313310546874,8.245577C24.333313310546874,8.245577,24.313423310546874,8.20957,24.313423310546874,8.20957C24.258463310546876,8.10715,24.171973310546875,8.0353427,24.073053310546875,8.0100075C23.974133310546875,7.9846722,23.870933310546874,8.00789294,23.786233310546876,8.0745414C23.741513310546875,8.10817,23.702663310546875,8.151997,23.671843310546876,8.203568C23.671843310546876,8.203568,23.651953310546876,8.242576,23.651953310546876,8.242576C22.670523310546876,10.19899,21.682473310546875,12.150400000000001,20.687773310546874,14.09681C20.486683310546876,14.44586,20.486683310546876,14.908999999999999,20.687773310546874,15.25805C22.002423310546874,17.83857,23.312933310546875,20.420099999999998,24.619263310546874,23.0026C24.837773310546876,23.3803,24.837773310546876,23.8823,24.619263310546874,24.2599C22.465783310546875,28.5328,20.190433310546876,33.0248,18.017042010546874,37.3157C17.917734510546875,37.5412,17.987664910546876,37.8211,18.173705310546875,37.9428C18.228733310546875,37.9785,18.290274310546874,37.9971,18.352749310546876,37.9968C18.352749310546876,37.9968,24.666513310546875,37.9968,24.666513310546875,37.9968C24.807933310546876,37.9979,24.938163310546877,37.904399999999995,25.004743310546875,37.753699999999995C25.004743310546875,37.753699999999995,25.004743310546875,37.753699999999995,25.004743310546875,37.753699999999995C25.004743310546875,37.753699999999995,25.221073310546874,37.3157,25.221073310546874,37.3157C25.221073310546874,37.3157,28.147893310546877,31.5125,28.147893310546877,31.5125C28.147893310546877,31.5125,28.147893310546877,31.5125,28.147893310546877,31.5125C28.196293310546874,31.4044,28.278393310546875,31.3243,28.376093310546874,31.2899C28.473793310546874,31.2555,28.578793310546875,31.2698,28.667693310546873,31.3294C28.720993310546874,31.3633,28.766293310546875,31.4128,28.799393310546876,31.4735C28.799393310546876,31.4735,28.799393310546876,31.4735,28.799393310546876,31.4735C28.799393310546876,31.4735,28.799393310546876,31.4735,28.799393310546876,31.4735C28.799393310546876,31.4735,31.698993310546875,37.1747,31.698993310546875,37.1747C31.698993310546875,37.1747,31.967593310546874,37.705799999999996,31.967593310546874,37.705799999999996C32.03509331054688,37.8532,32.16359331054687,37.9452,32.30329331054688,37.9458C32.30329331054688,37.9458,32.479793310546874,37.9458,32.479793310546874,37.9458C32.509593310546876,37.9488,32.539493310546874,37.9488,32.569293310546875,37.9458C32.569293310546875,37.9458,38.61709331054688,37.9458,38.61709331054688,37.9458C38.827593310546874,37.9458,38.99859331054688,37.740700000000004,38.99999331054687,37.4867C38.996493310546875,37.4403,38.987293310546875,37.394800000000004,38.97259331054687,37.3517C38.97259331054687,37.3517,38.97259331054687,37.3517,38.97259331054687,37.3517Z"
          fill="#FFFFFF"
          fill-opacity="1"
        />
      </g>
      <g style="mix-blend-mode: passthrough">
        <path
          d="M22.1425,24.5480744921875C22.1425,24.5480744921875,22.3539,24.1279844921875,22.3539,24.1279844921875C22.5325,23.8187444921875,22.5325,23.4080144921875,22.3539,23.0987644921875C22.3539,23.0987644921875,21.055799999999998,20.5602344921875,21.055799999999998,20.5602344921875C21.055799999999998,20.5602344921875,19.5638,17.6586264921875,19.5638,17.6586264921875C19.5109,17.5537294921875,19.4253,17.4788099921875,19.3263,17.4506155921875C19.2271,17.4224211921875,19.122799999999998,17.4433038221875,19.0367,17.5085948921875C18.979219999999998,17.5499054921875,18.93204,17.6089494921875,18.89988,17.6796314921875C18.89988,17.6796314921875,9.0449912,37.3187544921875,9.0449912,37.3187544921875C8.9458979,37.543354492187504,9.0159324,37.8223544921875,9.201654,37.942954492187496C9.256799,37.9813544921875,9.319522,38.0009544921875,9.383185,37.9999544921875C9.383185,37.9999544921875,15.172270000000001,37.9999544921875,15.172270000000001,37.9999544921875C15.312100000000001,37.999854492187495,15.44079,37.9077544921875,15.50798,37.7598544921875C15.50798,37.7598544921875,15.50798,37.7598544921875,15.50798,37.7598544921875C15.50798,37.7598544921875,15.729289999999999,37.3157544921875,15.729289999999999,37.3157544921875C15.73929,37.2994544921875,15.74842,37.2823544921875,15.756630000000001,37.2647544921875C15.756630000000001,37.2647544921875,15.756630000000001,37.2647544921875,15.756630000000001,37.2647544921875C15.756630000000001,37.2647544921875,16.00532,36.7846544921875,16.00532,36.7846544921875C18.06678,32.6587544921875,20.0413,28.7189544921875,22.1077,24.6140944921875C22.1205,24.5930144921875,22.1321,24.5709744921875,22.1425,24.5480744921875C22.1425,24.5480744921875,22.1425,24.5480744921875,22.1425,24.5480744921875Z"
          fill="#FFFFFF"
          fill-opacity="1"
        />
      </g>
    </g>
  </g>
</svg>
